PathFileType	4	(X/Y/Z)	/Users/itak/Documents/Research/Walk-IL/dataset/trc/00345_00011.trc
DataRate	CameraRate	NumFrames	NumMarkers	Units	OrigDataRate	OrigDataStartFrame	OrigNumFrames
100.000000	100.000000	4	55	mm	100.000000	0	735
Frame#	Time	RPSI			LPSI			L3			STRN			T10			C7			CLAV			RBAK			LBAK			LSHO			LUPA			LAEL			LAOL			LWTS			LWPS			LFRA			LIFD			LHPS			LHTS			RSHO			RUPA			RAEL			RAOL			RWTS			RWPS			RFRA			RIFD			RHTS			RHPS			RBHD			LFHD			RFHD			LBHD			LHIP			RHIP			RASI			LASI			LKNE			LTHI			LANK			LTIP			LTOE			LMT1			LMT5			LHEE			RKNE			RTHI			RANK			RTIP			RTOE			RMT1			RMT5			RHEE			*53			*54			
		X1	Y1	Z1	X2	Y2	Z2	X3	Y3	Z3	X4	Y4	Z4	X5	Y5	Z5	X6	Y6	Z6	X7	Y7	Z7	X8	Y8	Z8	X9	Y9	Z9	X10	Y10	Z10	X11	Y11	Z11	X12	Y12	Z12	X13	Y13	Z13	X14	Y14	Z14	X15	Y15	Z15	X16	Y16	Z16	X17	Y17	Z17	X18	Y18	Z18	X19	Y19	Z19	X20	Y20	Z20	X21	Y21	Z21	X22	Y22	Z22	X23	Y23	Z23	X24	Y24	Z24	X25	Y25	Z25	X26	Y26	Z26	X27	Y27	Z27	X28	Y28	Z28	X29	Y29	Z29	X30	Y30	Z30	X31	Y31	Z31	X32	Y32	Z32	X33	Y33	Z33	X34	Y34	Z34	X35	Y35	Z35	X36	Y36	Z36	X37	Y37	Z37	X38	Y38	Z38	X39	Y39	Z39	X40	Y40	Z40	X41	Y41	Z41	X42	Y42	Z42	X43	Y43	Z43	X44	Y44	Z44	X45	Y45	Z45	X46	Y46	Z46	X47	Y47	Z47	X48	Y48	Z48	X49	Y49	Z49	X50	Y50	Z50	X51	Y51	Z51	X52	Y52	Z52	X53	Y53	Z53	X54	Y54	Z54	X55	Y55	Z55	

1	0	-373.569580078125	980.625244140625	1051.1259765625	-373.9771423339844	979.8974609375	922.72216796875	-377.0551452636719	1032.487426757812	989.0580444335938	-162.6322479248047	1232.025268554688	978.7890625	-397.8641662597656	1151.2685546875	976.7999267578125	-371.786376953125	1401.112060546875	963.0823364257812	-211.8966827392578	1355.969360351562	973.6930541992188	-412.9805297851562	1259.588256835938	1030.217895507812	-376.4572448730469	1364.304321289062	860.4842529296875	-290.2237854003906	1387.592529296875	807.0263061523438	-296.091552734375	1265.953979492188	738.9957275390625	-263.5298461914062	1062.23486328125	734.2713012695312	-331.4507751464844	1047.525512695312	784.3074951171875	-161.0883026123047	825.1054077148438	797.4369506835938	-191.5193786621094	811.7860717773438	737.2853393554688	-241.3910827636719	958.5730590820312	731.9390258789062	-150.7661437988281	666.4288330078125	810.8641357421875	-193.2708129882812	741.1383666992188	744.4990844726562	-143.6735534667969	746.6908569335938	784.8142700195312	-318.8409729003906	1391.327880859375	1127.969970703125	-327.2968444824219	1325.320434570312	1190.649658203125	-300.0218200683594	1058.006225585938	1224.337646484375	-341.7138061523438	1049.492431640625	1140.167724609375	-169.4820251464844	845.4600219726562	1151.921997070312	-213.8465576171875	817.6524658203125	1240.338256835938	-269.8759460449219	992.2760620117188	1231.49072265625	-167.2160491943359	662.2767944335938	1169.371704101562	-151.9186553955078	733.3455200195312	1180.979370117188	-196.6016235351562	732.7405395507812	1234.564453125	-332.5516357421875	1608.244140625	1051.918701171875	-168.8828277587891	1630.707397460938	924.0960083007812	-173.4112548828125	1631.187866210938	1025.054809570312	-352.9110717773438	1602.544311523438	908.6190185546875	-287.5584411621094	924.75244140625	818.5499877929688	-293.588623046875	928.0999755859375	1158.845581054688	-188.6936492919922	958.5867309570312	1116.77783203125	-166.2178039550781	953.0894775390625	877.8094482421875	-251.0725250244141	468.1896362304688	821.7431640625	-244.8829956054688	605.863037109375	814.2269897460938	-326.814208984375	51.21173858642578	823.2510986328125	-292.8424377441406	253.1455383300781	809.9024658203125	-117.6648254394531	45.03070831298828	864.989501953125	-183.7097930908203	31.49813461303711	910.3026123046875	-202.8742523193359	47.38973236083984	799.4884643554688	-355.67431640625	44.0167121887207	892.8189697265625	-274.6858215332031	465.1880187988281	1135.781982421875	-228.6879730224609	724.2584838867188	1166.593994140625	-349.1165466308594	50.18817138671875	1105.6005859375	-272.563232421875	347.3177490234375	1128.936157226562	-149.0055999755859	47.81414413452148	1093.059448242188	-193.6951751708984	45.19293975830078	1041.269165039062	-254.7357635498047	36.81764602661133	1143.427612304688	-387.1932983398438	55.36458969116211	1047.232299804688	nan	nan	nan	nan	nan	nan	
2	0.01	-373.5326843261719	980.6380004882812	1051.122802734375	-373.9530334472656	979.9052124023438	922.7328491210938	-376.9598999023438	1032.4990234375	989.084716796875	-162.6005554199219	1232.031372070312	978.7675170898438	-397.8094787597656	1151.270385742188	976.800048828125	-371.7638854980469	1401.117431640625	963.0865478515625	-211.8403930664062	1355.98193359375	973.6856079101562	-412.9339904785156	1259.60107421875	1030.250122070312	-376.4186706542969	1364.307861328125	860.4823608398438	-290.171630859375	1387.600463867188	807.0148315429688	-296.0549011230469	1265.95263671875	738.996826171875	-263.48779296875	1062.2373046875	734.2570190429688	-331.4029846191406	1047.53173828125	784.2903442382812	-161.0462799072266	825.0933837890625	797.4063720703125	-191.5014495849609	811.7974243164062	737.2488403320312	-241.3500823974609	958.5648803710938	731.9225463867188	-150.7751312255859	666.4246826171875	810.83740234375	-193.2418212890625	741.1447143554688	744.4418334960938	-143.6284790039062	746.7218627929688	784.764892578125	-318.8000183105469	1391.343872070312	1127.971923828125	-327.2261047363281	1325.362426757812	1190.67626953125	-299.9713745117188	1058.033935546875	1224.3525390625	-341.6381225585938	1049.501342773438	1140.168334960938	-169.4569396972656	845.457275390625	1151.951049804688	-213.7990875244141	817.6740112304688	1240.344604492188	-269.80029296875	992.306884765625	1231.502075195312	-167.1755523681641	662.2848510742188	1169.351806640625	-151.8744354248047	733.3741455078125	1180.994384765625	-196.5558929443359	732.7567138671875	1234.561279296875	-332.4917297363281	1608.214477539062	1051.947998046875	-168.9198455810547	1630.745849609375	924.0451049804688	-173.4044647216797	1631.213745117188	1025.03759765625	-352.9548645019531	1602.522338867188	908.6640014648438	-287.5045776367188	924.7611083984375	818.540283203125	-292.8808898925781	927.6614990234375	1158.41552734375	-188.6187286376953	958.5656127929688	1116.754150390625	-166.172607421875	953.081787109375	877.7761840820312	-251.0566711425781	468.1844177246094	821.740234375	-244.8583068847656	605.8699951171875	814.2112426757812	-326.8141479492188	51.21334075927734	823.2515258789062	-292.8302612304688	253.1425628662109	809.8980712890625	-117.664421081543	45.03060531616211	864.9888916015625	-183.7098236083984	31.50275611877441	910.3005981445312	-202.8752136230469	47.38863372802734	799.4835815429688	-355.6771545410156	44.01753234863281	892.8212890625	-274.6257629394531	465.2046813964844	1135.765258789062	-228.6081695556641	724.2714233398438	1166.545043945312	-349.1198425292969	50.19576263427734	1105.599731445312	-272.5333557128906	347.308349609375	1128.943237304688	-149.0009460449219	47.81423950195312	1093.0595703125	-193.6964416503906	45.19086074829102	1041.270385742188	-254.7341003417969	36.81841659545898	1143.428344726562	-387.1950988769531	55.38154220581055	1047.240356445312	nan	nan	nan	nan	nan	nan	
3	0.02	-373.48193359375	980.6555786132812	1051.118896484375	-373.9214782714844	979.9158935546875	922.7454223632812	-376.8367309570312	1032.51416015625	989.1185913085938	-162.5562896728516	1232.038208007812	978.7398681640625	-397.7363891601562	1151.274047851562	976.80029296875	-371.733642578125	1401.12451171875	963.09228515625	-211.7648620605469	1355.996337890625	973.6743774414062	-412.8742370605469	1259.617431640625	1030.29248046875	-376.3683166503906	1364.313842773438	860.4812622070312	-290.102294921875	1387.611938476562	807.0001220703125	-296.0051574707031	1265.9521484375	738.9982299804688	-263.4349975585938	1062.240356445312	734.2390747070312	-331.3369445800781	1047.539794921875	784.2702026367188	-160.9909057617188	825.0763549804688	797.3641967773438	-191.4800872802734	811.811767578125	737.199951171875	-241.2965240478516	958.5570678710938	731.8995971679688	-150.7856750488281	666.4185180664062	810.7986450195312	-193.2060394287109	741.1533813476562	744.3675537109375	-143.569091796875	746.7653198242188	784.6976318359375	-318.7439880371094	1391.364868164062	1127.976806640625	-327.1295471191406	1325.414306640625	1190.71142578125	-299.9041748046875	1058.06787109375	1224.372314453125	-341.5387268066406	1049.512817382812	1140.17138671875	-169.4232482910156	845.454345703125	1151.990234375	-213.7328643798828	817.699951171875	1240.350708007812	-269.7013549804688	992.3457641601562	1231.518310546875	-167.1204376220703	662.2952880859375	1169.327392578125	-151.8137359619141	733.4091186523438	1181.015625	-196.4949645996094	732.7785034179688	1234.56005859375	-332.4118957519531	1608.176513671875	1051.988891601562	-168.9638519287109	1630.794067382812	923.9779663085938	-173.3919982910156	1631.244995117188	1025.013061523438	-353.0077209472656	1602.495727539062	908.7222900390625	-287.4287109375	924.7698974609375	818.5261840820312	-292.0064697265625	927.1234741210938	1157.888061523438	-188.5186614990234	958.538330078125	1116.722778320312	-166.1147766113281	953.0707397460938	877.7349853515625	-251.0376281738281	468.1779479980469	821.7361450195312	-244.8273162841797	605.8789672851562	814.1909790039062	-326.8141174316406	51.21540451049805	823.2520141601562	-292.8154602050781	253.1390838623047	809.8916625976562	-117.6638641357422	45.03050994873047	864.988037109375	-183.7099151611328	31.50842666625977	910.2981567382812	-202.875732421875	47.38685607910156	799.4774169921875	-355.6799621582031	44.01893615722656	892.8236083984375	-274.5492858886719	465.2260131835938	1135.743286132812	-228.4443206787109	724.2494506835938	1166.440063476562	-349.1229553222656	50.20462799072266	1105.59814453125	-272.4942016601562	347.2974243164062	1128.950927734375	-148.9954376220703	47.81425476074219	1093.059448242188	-193.6973114013672	45.18815612792969	1041.27197265625	-254.7317657470703	36.81926727294922	1143.42919921875	-387.1951599121094	55.39891815185547	1047.246337890625	nan	nan	nan	nan	nan	nan	
4	0.03	-373.4173889160156	980.677978515625	1051.1142578125	-373.8832092285156	979.9292602539062	922.7586669921875	-376.6898803710938	1032.5322265625	989.1576538085938	-162.4990234375	1232.044799804688	978.7072143554688	-397.6462097167969	1151.279907226562	976.8009033203125	-371.6958618164062	1401.133178710938	963.099853515625	-211.6711120605469	1356.010986328125	973.65869140625	-412.8035278320312	1259.636962890625	1030.34375	-376.307373046875	1364.322875976562	860.481689453125	-290.0171203613281	1387.62744140625	806.98291015625	-295.9425354003906	1265.953369140625	738.999755859375	-263.3739929199219	1062.244018554688	734.2184448242188	-331.2526550292969	1047.5498046875	784.24853515625	-160.9238891601562	825.05419921875	797.310546875	-191.4568786621094	811.828369140625	737.1395263671875	-241.2318878173828	958.551513671875	731.8699340820312	-150.7966003417969	666.4102172851562	810.7469482421875	-193.1654663085938	741.1642456054688	744.2788696289062	-143.4971771240234	746.8211669921875	784.6137084960938	-318.6730651855469	1391.390502929688	1127.985961914062	-327.0074462890625	1325.472778320312	1190.754638671875	-299.8211669921875	1058.105712890625	1224.396362304688	-341.4183959960938	1049.526123046875	1140.17822265625	-169.3811645507812	845.4514770507812	1152.0390625	-213.6473999023438	817.728271484375	1240.354858398438	-269.5817260742188	992.3909301757812	1231.540161132812	-167.0512084960938	662.3074951171875	1169.299926757812	-151.7368316650391	733.4481811523438	1181.042724609375	-196.4197540283203	732.8056640625	1234.5625	-332.3132629394531	1608.131591796875	1052.041259765625	-169.0112152099609	1630.849731445312	923.8963012695312	-173.3717041015625	1631.279541015625	1024.98046875	-353.0655517578125	1602.46630859375	908.791748046875	-287.3302001953125	924.7771606445312	818.50732421875	-291.0221252441406	926.5231323242188	1157.300170898438	-188.3953704833984	958.506103515625	1116.684204101562	-166.0466461181641	953.0563354492188	877.6882934570312	-251.0167388916016	468.1707153320312	821.7307739257812	-244.7915802001953	605.8895263671875	814.166748046875	-326.8140563964844	51.21780014038086	823.2525634765625	-292.7990417480469	253.1353759765625	809.8831176757812	-117.6631622314453	45.03043746948242	864.987060546875	-183.7100677490234	31.51474380493164	910.2955932617188	-202.8755493164062	47.38425445556641	799.4702758789062	-355.6821594238281	44.02106857299805	892.8255615234375	-274.4597778320312	465.2510375976562	1135.716674804688	-228.1718597412109	724.1738891601562	1166.262573242188	-349.1252746582031	50.21406555175781	1105.595336914062	-272.4468688964844	347.2859191894531	1128.958129882812	-148.9894714355469	47.81412124633789	1093.058959960938	-193.6974487304688	45.18493270874023	1041.273559570312	-254.7287445068359	36.82004928588867	1143.429931640625	-387.1923522949219	55.41399765014648	1047.248657226562	nan	nan	nan	nan	nan	nan	
